HIERARCHY
ROOT Hips
{
	OFFSET 0.618921 110.370956 -0.528403
	CHANNELS 6 Xposition Yposition Zposition Xrotation Yrotation Zrotation
	JOINT Chest
	{
		OFFSET 0.079933 13.570488 1.410538
		CHANNELS 3 Xrotation Yrotation Zrotation
		JOINT Chest2
		{
			OFFSET -0.763206 21.304482 2.145468
			CHANNELS 3 Xrotation Yrotation Zrotation
			JOINT Chest3
			{
				OFFSET 1.660455 14.784302 -1.219445
				CHANNELS 3 Xrotation Yrotation Zrotation
				JOINT Neck
				{
					OFFSET 0.928506 17.236404 0.812438
					CHANNELS 3 Xrotation Yrotation Zrotation
					JOINT Head
					{
						OFFSET -1.422298 10.265228 1.558769
						CHANNELS 3 Xrotation Yrotation Zrotation
						End Site
						{
							OFFSET -1.391351 10.279083 1.494040
						}
					}
				}
				JOINT LeftCollar
				{
					OFFSET 4.280843 12.861115 4.250951
					CHANNELS 3 Xrotation Yrotation Zrotation
					JOINT LeftUpArm
					{
						OFFSET 16.828478 4.190262 -2.782692
						CHANNELS 3 Xrotation Yrotation Zrotation
						JOINT LeftLowArm
						{
							OFFSET 19.166464 22.180771 16.744783
							CHANNELS 3 Xrotation Yrotation Zrotation
							JOINT LeftHand
							{
								OFFSET 18.809692 19.784744 12.478222
								CHANNELS 3 Xrotation Yrotation Zrotation
								End Site
								{
									OFFSET 4.110954 4.324097 2.727180
								}
							}
						}
					}
				}
				JOINT RightCollar
				{
					OFFSET -3.966029 13.380890 2.651574
					CHANNELS 3 Xrotation Yrotation Zrotation
					JOINT RightUpArm
					{
						OFFSET -14.181646 5.330688 -8.885994
						CHANNELS 3 Xrotation Yrotation Zrotation
						JOINT RightLowArm
						{
							OFFSET -22.397024 21.970474 12.466171
							CHANNELS 3 Xrotation Yrotation Zrotation
							JOINT RightHand
							{
								OFFSET -18.318745 21.094421 10.972828
								CHANNELS 3 Xrotation Yrotation Zrotation
								End Site
								{
									OFFSET -4.003754 4.610397 2.398218
								}
							}
						}
					}
				}
			}
		}
	}
	JOINT LeftUpLeg
	{
		OFFSET 8.974228 -0.513458 4.429306
		CHANNELS 3 Xrotation Yrotation Zrotation
		JOINT LeftLowLeg
		{
			OFFSET 0.857808 -47.087723 5.098888
			CHANNELS 3 Xrotation Yrotation Zrotation
			JOINT LeftFoot
			{
				OFFSET 3.953912 -42.609543 -13.013852
				CHANNELS 3 Xrotation Yrotation Zrotation
				JOINT LeftToe
				{
					OFFSET -5.228573 -20.758793 10.064478
					CHANNELS 3 Xrotation Yrotation Zrotation
					End Site
					{
						OFFSET -6.323017 -9.108042 20.895500
					}
				}
			}
		}
	}
	JOINT RightUpLeg
	{
		OFFSET -8.974233 0.513260 -4.429327
		CHANNELS 3 Xrotation Yrotation Zrotation
		JOINT RightLowLeg
		{
			OFFSET -1.990371 -46.493271 -8.855854
			CHANNELS 3 Xrotation Yrotation Zrotation
			JOINT RightFoot
			{
				OFFSET 4.633797 -40.872566 -17.565338
				CHANNELS 3 Xrotation Yrotation Zrotation
				JOINT RightToe
				{
					OFFSET -2.872974 -22.029936 8.123096
					CHANNELS 3 Xrotation Yrotation Zrotation
					End Site
					{
						OFFSET -9.026075 -11.623386 18.519800
					}
				}
			}
		}
	}
}
MOTION
Frames: 5
Frame Time: 0.033333
-2.888848 105.114243 -1.111722 3.136453 23.044032 1.924706 -1.244592 -0.945885 0.535702 0.665484 -0.742589 3.820864 1.020284 -8.982343 -2.954590 -4.680388 10.271742 -7.220275 -0.000001 -0.000000 0.000000 18.047781 2.708988 -41.763472 39.635871 -14.280972 -68.293969 28.228639 -0.832732 17.498333 0.000002 0.000003 0.000003 2.605653 -7.685705 44.018206 26.452233 -5.807859 76.643772 32.213044 2.713060 -7.413307 -0.000000 0.000001 -0.000001 6.918713 0.738910 3.926525 -10.384019 5.417469 -1.557531 -16.128462 -9.608776 -7.385065 0.000001 -0.000001 0.000000 -4.577486 0.767520 0.689836 -4.168689 -5.397966 -2.150924 -7.134963 -11.770987 -10.406701 0.000001 0.000003 0.000004 
-2.880805 105.115692 -1.105497 3.128417 23.333808 1.913022 -1.417132 -0.934804 0.449522 1.280397 -0.794114 4.139787 0.459223 -9.098033 -3.187136 -4.653160 10.197049 -7.084403 0.000000 0.000003 0.000001 18.120454 2.556509 -41.900578 39.725405 -14.079398 -68.280438 28.471486 -0.959262 18.143301 -0.000000 0.000001 0.000001 2.607339 -7.762801 44.197369 26.497231 -5.874121 76.485415 32.071222 2.431322 -7.349419 -0.000002 0.000002 0.000003 7.006779 0.744716 3.994929 -10.562765 5.492530 -1.673479 -16.661384 -9.845105 -7.735367 -0.000000 -0.000001 -0.000000 -4.661849 0.787275 0.662467 -4.153412 -5.379145 -2.111734 -7.175477 -12.168096 -10.515033 0.000001 0.000003 0.000004 
-2.873923 105.117683 -1.102656 3.017196 23.531142 1.827045 -0.983455 -0.979702 0.726323 0.905431 -0.825913 4.076718 0.502164 -9.001196 -3.240084 -4.540731 10.087681 -6.968029 -0.000000 -0.000001 0.000000 18.193800 1.622176 -41.577137 39.784998 -13.910527 -68.594784 28.432565 -1.133189 18.766532 -0.000002 0.000004 -0.000000 2.536341 -8.125488 44.295628 26.573397 -6.078920 76.584329 32.137754 2.529613 -7.579224 0.000002 0.000003 -0.000000 6.946239 0.725988 4.087121 -10.277235 5.418072 -1.577552 -16.674329 -9.864700 -7.772887 -0.000000 -0.000002 -0.000001 -4.778496 0.812184 0.711506 -3.680786 -5.336451 -1.845926 -7.463114 -12.249322 -10.666865 -0.000001 0.000007 0.000004 
-2.859497 105.120857 -1.096933 3.083792 23.209919 1.847464 -0.981981 -0.985843 0.642194 0.249190 -0.787366 3.793745 1.295964 -8.677215 -2.874457 -4.910827 10.015251 -6.911053 0.000000 -0.000001 0.000000 18.392969 1.118285 -41.356912 39.971903 -14.381943 -68.199657 28.377484 -0.901338 19.284891 0.000004 0.000003 0.000002 2.748776 -8.105677 44.281500 26.768543 -5.621460 76.396308 32.156432 2.095938 -7.934766 0.000001 0.000000 0.000003 6.968410 0.782262 4.041312 -10.316968 5.584358 -1.680677 -16.729611 -9.749328 -7.684528 0.000001 -0.000002 -0.000001 -4.875040 0.809608 0.519947 -3.589938 -5.438231 -1.812978 -7.478018 -11.988340 -10.655905 -0.000003 0.000005 0.000002 
-2.840016 105.116776 -1.086680 3.238718 22.989602 1.865677 -1.222462 -0.969515 0.502318 0.294493 -0.746577 3.769178 1.464174 -8.583583 -2.778790 -4.909152 10.031552 -6.851465 -0.000000 -0.000001 0.000000 18.390653 1.001802 -41.349607 40.009793 -14.556183 -68.067637 28.357806 -1.019157 19.593284 -0.000001 0.000003 0.000003 2.649178 -8.596982 44.266309 26.818661 -5.705949 76.481153 32.244104 2.254369 -7.987682 -0.000003 0.000001 -0.000001 7.005630 0.718340 3.937724 -10.572038 5.661625 -1.770604 -16.312906 -9.557400 -7.372002 -0.000000 -0.000002 -0.000001 -4.972237 0.869725 0.353187 -3.541509 -5.451133 -1.719095 -7.745390 -11.937050 -10.735597 -0.000002 0.000002 0.000003 
